<svg width="10" height="11" viewBox="0 0 10 11" fill="none" xmlns="http://www.w3.org/2000/svg">
<path d="M9.60073 1.44046C9.60073 1.22829 9.51645 1.02481 9.36642 0.874778C9.21639 0.724749 9.01291 0.640464 8.80073 0.640464L2.40073 0.600464C2.18856 0.600464 1.98508 0.684749 1.83505 0.834779C1.68502 0.984808 1.60073 1.18829 1.60073 1.40046C1.60073 1.61264 1.68502 1.81612 1.83505 1.96615C1.98508 2.11618 2.18856 2.20046 2.40073 2.20046H6.84873L0.232732 8.83247C0.15775 8.90684 0.0982344 8.99532 0.0576195 9.0928C0.0170045 9.19029 -0.00390625 9.29485 -0.00390625 9.40046C-0.00390625 9.50607 0.0170045 9.61064 0.0576195 9.70813C0.0982344 9.80561 0.15775 9.89409 0.232732 9.96846C0.307103 10.0434 0.395584 10.103 0.493071 10.1436C0.590558 10.1842 0.695123 10.2051 0.800732 10.2051C0.906342 10.2051 1.01091 10.1842 1.10839 10.1436C1.20588 10.103 1.29436 10.0434 1.36873 9.96846L8.00073 3.33646V7.80046C8.00073 8.01264 8.08502 8.21612 8.23505 8.36615C8.38508 8.51618 8.58856 8.60046 8.80073 8.60046C9.01291 8.60046 9.21639 8.51618 9.36642 8.36615C9.51645 8.21612 9.60073 8.01264 9.60073 7.80046V1.44046Z" fill="white"/>
</svg>
