<svg width="21" height="18" viewBox="0 0 21 18" fill="none" xmlns="http://www.w3.org/2000/svg">
<path d="M18.8499 12.75C18.8499 15.2325 16.8324 17.25 14.3499 17.25V16.125C16.2249 16.125 17.7249 14.625 17.7249 12.75H18.8499ZM2.34994 5.25C2.34994 2.7675 4.36744 0.75 6.84994 0.75V1.875C4.97494 1.875 3.47494 3.375 3.47494 5.25H2.34994ZM7.59994 3.24L4.15744 6.69C1.74244 9.105 1.74244 13.0275 4.15744 15.4425C6.57244 17.8575 10.4949 17.8575 12.9099 15.4425L18.2124 10.125C18.5799 9.7725 18.5799 9.18 18.2124 8.8125C18.1254 8.72519 18.0219 8.65593 17.908 8.60866C17.7941 8.5614 17.672 8.53707 17.5487 8.53707C17.4254 8.53707 17.3033 8.5614 17.1894 8.60866C17.0755 8.65593 16.972 8.72519 16.8849 8.8125L13.5699 12.1275L13.0374 11.595L17.9424 6.69C18.3099 6.3225 18.3099 5.73 17.9424 5.3625C17.5749 4.995 16.9749 4.995 16.5999 5.3625L12.2424 9.75L11.7249 9.2025L16.8774 4.035C17.2449 3.6675 17.2449 3.075 16.8774 2.7075C16.5099 2.34 15.9174 2.34 15.5499 2.7075L10.3824 7.875L9.84994 7.35L13.9749 3.24C14.3499 2.8725 14.3499 2.28 13.9749 1.9125C13.5999 1.545 13.0149 1.545 12.6474 1.9125L6.93244 7.6275C7.37992 8.20472 7.60165 8.92527 7.55609 9.65421C7.51053 10.3832 7.20081 11.0705 6.68494 11.5875L6.15244 11.055C6.57379 10.6331 6.81046 10.0613 6.81046 9.465C6.81046 8.86875 6.57379 8.29688 6.15244 7.875L5.88994 7.6125L8.94244 4.56C9.30994 4.1925 9.30994 3.6 8.94244 3.2325C8.56744 2.8725 7.97494 2.8725 7.59994 3.24Z" fill="white"/>
</svg>
