<svg width="25" height="25" viewBox="0 0 25 25" fill="none" xmlns="http://www.w3.org/2000/svg">
<path d="M12.5 2.41309C10.5222 2.41309 8.58879 2.99958 6.9443 4.09839C5.29981 5.1972 4.01809 6.75899 3.26121 8.58625C2.50433 10.4135 2.3063 12.4242 2.69215 14.364C3.078 16.3038 4.03041 18.0856 5.42894 19.4842C6.82746 20.8827 8.60929 21.8351 10.5491 22.2209C12.4889 22.6068 14.4996 22.4088 16.3268 21.6519C18.1541 20.895 19.7159 19.6133 20.8147 17.9688C21.9135 16.3243 22.5 14.3909 22.5 12.4131C22.4971 9.76181 21.4426 7.21997 19.5679 5.34523C17.6931 3.4705 15.1513 2.416 12.5 2.41309ZM12.5 20.4131C10.9178 20.4131 9.37104 19.9439 8.05544 19.0648C6.73985 18.1858 5.71447 16.9364 5.10897 15.4746C4.50347 14.0127 4.34504 12.4042 4.65372 10.8524C4.9624 9.30052 5.72433 7.87505 6.84315 6.75623C7.96197 5.63741 9.38743 4.87549 10.9393 4.5668C12.4911 4.25812 14.0997 4.41655 15.5615 5.02205C17.0233 5.62755 18.2727 6.65293 19.1518 7.96852C20.0308 9.28412 20.5 10.8308 20.5 12.4131C20.4976 14.5341 19.654 16.5675 18.1542 18.0673C16.6545 19.5671 14.621 20.4107 12.5 20.4131Z" fill="white"/>
<path d="M9.5 6.85889V17.9669L18.387 12.4129L9.5 6.85889ZM11.5 10.4669L14.613 12.4129L11.5 14.3589V10.4669Z" fill="white"/>
</svg>
